<svg id="Capa_1" enable-background="new 0 0 512 512" height="512" viewBox="0 0 512 512" width="512" xmlns="http://www.w3.org/2000/svg"><g><g><g><g><g><path d="m441.861 392.443h-371.722c-12.687 0-22.972-10.285-22.972-22.972v-226.942c0-12.687 10.285-22.972 22.972-22.972h371.722c12.687 0 22.972 10.285 22.972 22.972v226.942c0 12.687-10.285 22.972-22.972 22.972z" fill="#f4f8f8"/></g><path d="m441.861 119.557h-40.589c12.687 0 22.972 10.285 22.972 22.972v226.942c0 12.687-10.285 22.972-22.972 22.972h40.589c12.687 0 22.972-10.285 22.972-22.972v-226.942c0-12.687-10.285-22.972-22.972-22.972z" fill="#e5ecf1"/></g></g></g><g><g><g><g><g><path d="m102.933 360.496c-4.142 0-7.5-3.357-7.5-7.5v-193.992c0-4.143 3.358-7.5 7.5-7.5s7.5 3.357 7.5 7.5v193.992c0 4.143-3.358 7.5-7.5 7.5z"/></g><g><path d="m136.948 360.496c-4.142 0-7.5-3.357-7.5-7.5v-193.992c0-4.143 3.358-7.5 7.5-7.5s7.5 3.357 7.5 7.5v193.992c0 4.143-3.358 7.5-7.5 7.5z"/></g><g><path d="m170.963 345.357c-4.142 0-7.5-3.357-7.5-7.5v-178.853c0-4.143 3.358-7.5 7.5-7.5s7.5 3.357 7.5 7.5v178.854c0 4.142-3.358 7.499-7.5 7.499z"/></g><g><path d="m204.978 345.357c-4.142 0-7.5-3.357-7.5-7.5v-178.853c0-4.143 3.358-7.5 7.5-7.5s7.5 3.357 7.5 7.5v178.854c0 4.142-3.358 7.499-7.5 7.499z"/></g><g><path d="m238.993 345.357c-4.142 0-7.5-3.357-7.5-7.5v-178.853c0-4.143 3.358-7.5 7.5-7.5s7.5 3.357 7.5 7.5v178.854c0 4.142-3.358 7.499-7.5 7.499z"/></g><g><path d="m273.008 345.357c-4.143 0-7.5-3.357-7.5-7.5v-178.853c0-4.143 3.357-7.5 7.5-7.5s7.5 3.357 7.5 7.5v178.854c0 4.142-3.358 7.499-7.5 7.499z"/></g><g><path d="m307.022 345.357c-4.143 0-7.5-3.357-7.5-7.5v-178.853c0-4.143 3.357-7.5 7.5-7.5s7.5 3.357 7.5 7.5v178.854c0 4.142-3.357 7.499-7.5 7.499z"/></g><g><path d="m341.037 345.357c-4.143 0-7.5-3.357-7.5-7.5v-178.853c0-4.143 3.357-7.5 7.5-7.5s7.5 3.357 7.5 7.5v178.854c0 4.142-3.357 7.499-7.5 7.499z"/></g><g><path d="m375.052 360.496c-4.143 0-7.5-3.357-7.5-7.5v-193.992c0-4.143 3.357-7.5 7.5-7.5s7.5 3.357 7.5 7.5v193.992c0 4.143-3.358 7.5-7.5 7.5z"/></g><g><path d="m409.067 360.496c-4.143 0-7.5-3.357-7.5-7.5v-193.992c0-4.143 3.357-7.5 7.5-7.5s7.5 3.357 7.5 7.5v193.992c0 4.143-3.357 7.5-7.5 7.5z"/></g></g><g><g><path d="m7.5 141.8c-4.142 0-7.5-3.357-7.5-7.5v-45.685c0-11.716 9.532-21.248 21.248-21.248h44.774c4.142 0 7.5 3.357 7.5 7.5s-3.358 7.5-7.5 7.5h-44.774c-3.445 0-6.248 2.803-6.248 6.248v45.685c0 4.142-3.358 7.5-7.5 7.5z"/></g><g><path d="m504.5 141.8c-4.143 0-7.5-3.357-7.5-7.5v-45.685c0-3.445-2.803-6.248-6.248-6.248h-45.252c-4.143 0-7.5-3.357-7.5-7.5s3.357-7.5 7.5-7.5h45.252c11.716 0 21.248 9.532 21.248 21.248v45.685c0 4.142-3.357 7.5-7.5 7.5z"/></g><g><path d="m66.022 444.633h-44.774c-11.716 0-21.248-9.532-21.248-21.248v-45.685c0-4.143 3.358-7.5 7.5-7.5s7.5 3.357 7.5 7.5v45.685c0 3.445 2.803 6.248 6.248 6.248h44.774c4.142 0 7.5 3.357 7.5 7.5s-3.357 7.5-7.5 7.5z"/></g><g><path d="m490.752 444.633h-45.252c-4.143 0-7.5-3.357-7.5-7.5s3.357-7.5 7.5-7.5h45.252c3.445 0 6.248-2.803 6.248-6.248v-45.685c0-4.143 3.357-7.5 7.5-7.5s7.5 3.357 7.5 7.5v45.685c0 11.716-9.532 21.248-21.248 21.248z"/></g></g><g><g><path d="m375.052 399.942h-304.913c-16.802 0-30.472-13.67-30.472-30.472v-226.941c0-16.802 13.669-30.472 30.472-30.472h30.743c4.142 0 7.5 3.357 7.5 7.5s-3.358 7.5-7.5 7.5h-30.743c-8.531 0-15.472 6.94-15.472 15.472v226.941c0 8.531 6.94 15.472 15.472 15.472h304.913c4.143 0 7.5 3.357 7.5 7.5s-3.358 7.5-7.5 7.5z"/></g><g><path d="m441.861 399.942h-31.627c-4.143 0-7.5-3.357-7.5-7.5s3.357-7.5 7.5-7.5h31.627c8.531 0 15.472-6.94 15.472-15.472v-226.941c0-8.531-6.94-15.472-15.472-15.472h-305.915c-4.142 0-7.5-3.357-7.5-7.5s3.358-7.5 7.5-7.5h305.916c16.802 0 30.472 13.67 30.472 30.472v226.941c-.001 16.802-13.671 30.472-30.473 30.472z"/></g></g></g></g></g></g></svg>