<svg height="512" viewBox="0 0 64 64" width="512" xmlns="http://www.w3.org/2000/svg"><g id="_27_Bsrcode" data-name="27 Bsrcode"><g fill="#26a6fe"><rect height="21" rx="3" width="21" x="36" y="36"/><rect height="21" rx="3" width="21" x="7" y="36"/><rect height="21" rx="3" width="21" x="36" y="7"/><rect height="21" rx="3" width="21" x="7" y="7"/></g><g fill="#67676b"><path d="m59 62h-13a1 1 0 0 1 0-2h13a1.0009 1.0009 0 0 0 1-1v-13a1 1 0 0 1 2 0v13a3.0033 3.0033 0 0 1 -3 3z"/><path d="m18 62h-13a3.0033 3.0033 0 0 1 -3-3v-13a1 1 0 0 1 2 0v13a1.0009 1.0009 0 0 0 1 1h13a1 1 0 0 1 0 2z"/><path d="m59 2h-13a1 1 0 0 0 0 2h13a1.0009 1.0009 0 0 1 1 1v13a1 1 0 0 0 2 0v-13a3.0033 3.0033 0 0 0 -3-3z"/><path d="m18 2h-13a3.0033 3.0033 0 0 0 -3 3v13a1 1 0 0 0 2 0v-13a1.0009 1.0009 0 0 1 1-1h13a1 1 0 0 0 0-2z"/><path d="m32 58a1 1 0 0 1 -1-1v-23a3.0033 3.0033 0 0 1 3-3h22a1 1 0 0 1 0 2h-22a1.0009 1.0009 0 0 0 -1 1v23a1 1 0 0 1 -1 1z"/></g><rect fill="#eee" height="9" rx="2" width="9" x="42" y="42"/><rect fill="#eee" height="9" rx="2" width="9" x="13" y="42"/><rect fill="#eee" height="9" rx="2" width="9" x="42" y="13"/><rect fill="#eee" height="9" rx="2" width="9" x="13" y="13"/><g fill="#67676b"><path d="m28 33h-5a1 1 0 0 1 0-2h5a1 1 0 0 1 0 2z"/><path d="m32 30a1 1 0 0 1 -1-1v-13a1 1 0 0 1 2 0v13a1 1 0 0 1 -1 1z"/><path d="m32 13a1 1 0 0 1 -1-1v-4a1 1 0 0 1 2 0v4a1 1 0 0 1 -1 1z"/><path d="m19 33h-11a1 1 0 0 1 0-2h11a1 1 0 0 1 0 2z"/></g></g><g id="Layer_32" data-name="Layer 32"><path d="m62 46v13a3.0033 3.0033 0 0 1 -3 3h-13a1 1 0 0 1 0-2h13a1.0009 1.0009 0 0 0 1-1v-13a1 1 0 0 1 2 0zm-44 14h-13a1.0009 1.0009 0 0 1 -1-1v-13a1 1 0 0 0 -2 0v13a3.0033 3.0033 0 0 0 3 3h13a1 1 0 0 0 0-2zm41-58h-13a1 1 0 0 0 0 2h13a1.0009 1.0009 0 0 1 1 1v13a1 1 0 0 0 2 0v-13a3.0033 3.0033 0 0 0 -3-3zm-55 16v-13a1.0009 1.0009 0 0 1 1-1h13a1 1 0 0 0 0-2h-13a3.0033 3.0033 0 0 0 -3 3v13a1 1 0 0 0 2 0zm52 13h-22a3.0033 3.0033 0 0 0 -3 3v23a1 1 0 0 0 2 0v-23a1.0009 1.0009 0 0 1 1-1h22a1 1 0 0 0 0-2zm-2 26h-15a3.0033 3.0033 0 0 1 -3-3v-15a3.0033 3.0033 0 0 1 3-3h15a3.0033 3.0033 0 0 1 3 3v15a3.0033 3.0033 0 0 1 -3 3zm-15-2h15a1.0009 1.0009 0 0 0 1-1v-15a1.0009 1.0009 0 0 0 -1-1h-15a1.0009 1.0009 0 0 0 -1 1v15a1.0009 1.0009 0 0 0 1 1zm12-11v5a2.0023 2.0023 0 0 1 -2 2h-5a2.0023 2.0023 0 0 1 -2-2v-5a2.0023 2.0023 0 0 1 2-2h5a2.0023 2.0023 0 0 1 2 2zm-2 0h-5.0015l.0015 5h5zm-27 0v5a2.0023 2.0023 0 0 1 -2 2h-5a2.0023 2.0023 0 0 1 -2-2v-5a2.0023 2.0023 0 0 1 2-2h5a2.0023 2.0023 0 0 1 2 2zm-2 0h-5.0015l.0015 5h5zm22-24v-5a2.0023 2.0023 0 0 1 2-2h5a2.0023 2.0023 0 0 1 2 2v5a2.0023 2.0023 0 0 1 -2 2h-5a2.0023 2.0023 0 0 1 -2-2zm2 0h5v-5h-5zm-31 0v-5a2.0023 2.0023 0 0 1 2-2h5a2.0023 2.0023 0 0 1 2 2v5a2.0023 2.0023 0 0 1 -2 2h-5a2.0023 2.0023 0 0 1 -2-2zm2 0h5v-5h-5zm13 19v15a3.0033 3.0033 0 0 1 -3 3h-15a3.0033 3.0033 0 0 1 -3-3v-15a3.0033 3.0033 0 0 1 3-3h15a3.0033 3.0033 0 0 1 3 3zm-2 0a1.0009 1.0009 0 0 0 -1-1h-15a1.0009 1.0009 0 0 0 -1 1v15a1.0009 1.0009 0 0 0 1 1h15a1.0009 1.0009 0 0 0 1-1zm10-14v-15a3.0033 3.0033 0 0 1 3-3h15a3.0033 3.0033 0 0 1 3 3v15a3.0033 3.0033 0 0 1 -3 3h-15a3.0033 3.0033 0 0 1 -3-3zm2 0a1.0009 1.0009 0 0 0 1 1h15a1.0009 1.0009 0 0 0 1-1v-15a1.0009 1.0009 0 0 0 -1-1h-15a1.0009 1.0009 0 0 0 -1 1zm-28-18h15a3.0033 3.0033 0 0 1 3 3v15a3.0033 3.0033 0 0 1 -3 3h-15a3.0033 3.0033 0 0 1 -3-3v-15a3.0033 3.0033 0 0 1 3-3zm15 2h-15a1.0009 1.0009 0 0 0 -1 1v15a1.0009 1.0009 0 0 0 1 1h15a1.0009 1.0009 0 0 0 1-1v-15a1.0009 1.0009 0 0 0 -1-1zm3 22h-5a1 1 0 0 0 0 2h5a1 1 0 0 0 0-2zm3-15v13a1 1 0 0 0 2 0v-13a1 1 0 0 0 -2 0zm0-8v4a1 1 0 0 0 2 0v-4a1 1 0 0 0 -2 0zm-23 23a1 1 0 0 0 0 2h11a1 1 0 0 0 0-2z"/></g></svg>